<svg width="256" height="256" viewBox="0 0 256 256" fill="none" xmlns="http://www.w3.org/2000/svg">
<path d="M219 128C219 178.258 178.258 219 128 219C77.7421 219 37 178.258 37 128C37 77.7421 77.7421 37 128 37C178.258 37 219 77.7421 219 128Z" fill="white"/>
<path fill-rule="evenodd" clip-rule="evenodd" d="M128 230C184.333 230 230 184.333 230 128C230 71.667 184.333 26 128 26C71.667 26 26 71.667 26 128C26 184.333 71.667 230 128 230ZM128 219C178.258 219 219 178.258 219 128C219 77.7421 178.258 37 128 37C77.7421 37 37 77.7421 37 128C37 178.258 77.7421 219 128 219Z" fill="#018000"/>
<path d="M76 121L112.5 157.5L175.5 94.5" stroke="#018000" stroke-width="11"/>
</svg>
