<?xml version="1.0" encoding="UTF-8" standalone="no"?>
<svg
   xmlns:dc="http://purl.org/dc/elements/1.1/"
   xmlns:cc="http://creativecommons.org/ns#"
   xmlns:rdf="http://www.w3.org/1999/02/22-rdf-syntax-ns#"
   xmlns:svg="http://www.w3.org/2000/svg"
   xmlns="http://www.w3.org/2000/svg"
   xmlns:sodipodi="http://sodipodi.sourceforge.net/DTD/sodipodi-0.dtd"
   xmlns:inkscape="http://www.inkscape.org/namespaces/inkscape"
   width="72"
   height="72"
   viewBox="0 0 72 72"
   version="1.1"
   id="svg8"
   sodipodi:docname="green-tick-transparent.svg"
   inkscape:version="0.92.3 (2405546, 2018-03-11)"
   style="fill:none">
  <metadata
     id="metadata14">
    <rdf:RDF>
      <cc:Work
         rdf:about="">
        <dc:format>image/svg+xml</dc:format>
        <dc:type
           rdf:resource="http://purl.org/dc/dcmitype/StillImage" />
        <dc:title></dc:title>
      </cc:Work>
    </rdf:RDF>
  </metadata>
  <defs
     id="defs12" />
  <sodipodi:namedview
     pagecolor="#ffffff"
     bordercolor="#666666"
     borderopacity="1"
     objecttolerance="10"
     gridtolerance="10"
     guidetolerance="10"
     inkscape:pageopacity="0"
     inkscape:pageshadow="2"
     inkscape:window-width="1920"
     inkscape:window-height="1031"
     id="namedview10"
     showgrid="false"
     inkscape:zoom="0.921875"
     inkscape:cx="-213.66102"
     inkscape:cy="145.38983"
     inkscape:window-x="0"
     inkscape:window-y="0"
     inkscape:window-maximized="1"
     inkscape:current-layer="svg8" />
  <path
     d="M 36,68 C 53.673098,68 68,53.6731 68,36 68,18.3269 53.673098,4.0000002 36,4.0000002 18.326902,4.0000002 3.9999998,18.3269 3.9999998,36 3.9999998,53.6731 18.326902,68 36,68 Z m 0,-3.45098 C 51.767215,64.54902 64.549019,51.76722 64.549019,36 64.549019,20.23282 51.767215,7.4509802 36,7.4509802 20.232815,7.4509802 7.4509797,20.23282 7.4509797,36 7.4509797,51.76722 20.232815,64.54902 36,64.54902 Z"
     id="path4"
     inkscape:connector-curvature="0"
     style="clip-rule:evenodd;fill:#018000;fill-rule:evenodd;stroke-width:1" />
  <path
     d="m 20.392157,32.486827 11.450981,11.45098 19.764705,-19.7647"
     id="path6"
     inkscape:connector-curvature="0"
     style="stroke:#018000;stroke-width:11" />
</svg>
